<?xml version="1.0" standalone="no"?>
<!DOCTYPE svg PUBLIC "-//W3C//DTD SVG 20010904//EN"
 "http://www.w3.org/TR/2001/REC-SVG-20010904/DTD/svg10.dtd">
<svg version="1.0" xmlns="http://www.w3.org/2000/svg"
 width="198.000000pt" height="198.000000pt" viewBox="0 0 198.000000 198.000000"
 preserveAspectRatio="xMidYMid meet">
<metadata>
Created by potrace 1.11, written by Peter Selinger 2001-2013
</metadata>
<g transform="translate(0.000000,198.000000) scale(0.100000,-0.100000)"
fill="#000000" stroke="none">
<path d="M0 990 l0 -990 990 0 990 0 0 990 0 990 -990 0 -990 0 0 -990z m680
671 c102 -17 210 -35 240 -41 30 -6 156 -28 280 -50 307 -55 322 -58 340 -75
13 -14 15 -77 18 -454 1 -248 -1 -448 -7 -462 -9 -24 -10 -23 -65 36 -32 33
-89 97 -128 143 -62 73 -81 87 -150 120 -73 34 -79 39 -74 62 23 96 8 142 -56
176 -51 27 -131 24 -163 -6 -33 -31 -47 -82 -33 -121 15 -42 1 -54 -92 -75
-124 -28 -166 -55 -227 -149 -29 -44 -53 -87 -53 -96 0 -8 -19 -44 -42 -79
-33 -51 -41 -72 -39 -104 2 -59 -16 -96 -47 -96 l-25 0 7 503 c9 606 16 768
36 792 17 20 14 20 280 -24z m668 -1088 c76 -48 112 -90 112 -130 0 -28 -44
-43 -126 -43 -52 0 -68 4 -85 21 -15 15 -19 27 -13 42 4 12 8 49 9 82 1 33 2
63 3 68 4 15 26 6 100 -40z m-630 -133 c25 -41 -10 -68 -65 -49 -27 9 -33 16
-33 39 0 17 7 33 17 38 22 13 65 -2 81 -28z"/>
</g>
</svg>
